<svg width="20" height="20" viewBox="0 0 20 20" fill="none" xmlns="http://www.w3.org/2000/svg">
<path d="M16.6667 5.23826C16.6667 4.19064 15.8095 3.3335 14.7619 3.3335H11.9048V5.23826H14.7619V7.76207L11.4476 11.9049H8.09524V7.14302H4.28572C2.18096 7.14302 0.476196 8.84778 0.476196 10.9525V13.8097H2.38096C2.38096 15.3906 3.65715 16.6668 5.2381 16.6668C6.81905 16.6668 8.09524 15.3906 8.09524 13.8097H12.3619L16.6667 8.42873V5.23826ZM5.2381 14.7621C4.71429 14.7621 4.28572 14.3335 4.28572 13.8097H6.19048C6.19048 14.3335 5.76191 14.7621 5.2381 14.7621Z" fill="#FFBA00"/>
<path d="M8.09537 4.28564H3.33347V6.19041H8.09537V4.28564Z" fill="#FFBA00"/>
<path d="M16.6668 10.9526C15.0858 10.9526 13.8096 12.2288 13.8096 13.8098C13.8096 15.3907 15.0858 16.6669 16.6668 16.6669C18.2477 16.6669 19.5239 15.3907 19.5239 13.8098C19.5239 12.2288 18.2477 10.9526 16.6668 10.9526ZM16.6668 14.7622C16.143 14.7622 15.7144 14.3336 15.7144 13.8098C15.7144 13.286 16.143 12.8574 16.6668 12.8574C17.1906 12.8574 17.6192 13.286 17.6192 13.8098C17.6192 14.3336 17.1906 14.7622 16.6668 14.7622Z" fill="#FFBA00"/>
</svg>
