<svg width="20" height="20" viewBox="0 0 20 20" fill="none" xmlns="http://www.w3.org/2000/svg">
<path d="M15.8333 11.6668V5.00016C15.8333 4.0835 15.0833 3.3335 14.1667 3.3335H2.50001C1.58334 3.3335 0.833344 4.0835 0.833344 5.00016V11.6668C0.833344 12.5835 1.58334 13.3335 2.50001 13.3335H14.1667C15.0833 13.3335 15.8333 12.5835 15.8333 11.6668ZM8.33334 10.8335C6.95001 10.8335 5.83334 9.71683 5.83334 8.3335C5.83334 6.95016 6.95001 5.8335 8.33334 5.8335C9.71668 5.8335 10.8333 6.95016 10.8333 8.3335C10.8333 9.71683 9.71668 10.8335 8.33334 10.8335ZM19.1667 5.8335V15.0002C19.1667 15.9168 18.4167 16.6668 17.5 16.6668H3.33334V15.0002H17.5V5.8335H19.1667Z" fill="#FFBA00"/>
</svg>
