<svg width="20" height="20" viewBox="0 0 20 20" fill="none" xmlns="http://www.w3.org/2000/svg">
<path d="M15 4.99984H13.3333C13.3333 3.15817 11.8417 1.6665 10 1.6665C8.15834 1.6665 6.66668 3.15817 6.66668 4.99984H5.00001C4.08334 4.99984 3.33334 5.74984 3.33334 6.6665V16.6665C3.33334 17.5832 4.08334 18.3332 5.00001 18.3332H15C15.9167 18.3332 16.6667 17.5832 16.6667 16.6665V6.6665C16.6667 5.74984 15.9167 4.99984 15 4.99984ZM8.33334 8.33317C8.33334 8.7915 7.95834 9.1665 7.50001 9.1665C7.04168 9.1665 6.66668 8.7915 6.66668 8.33317V6.6665H8.33334V8.33317ZM10 3.33317C10.9167 3.33317 11.6667 4.08317 11.6667 4.99984H8.33334C8.33334 4.08317 9.08334 3.33317 10 3.33317ZM13.3333 8.33317C13.3333 8.7915 12.9583 9.1665 12.5 9.1665C12.0417 9.1665 11.6667 8.7915 11.6667 8.33317V6.6665H13.3333V8.33317Z" fill="#FFBA00"/>
</svg>
