<svg width="24" height="26" viewBox="0 0 24 26" fill="none" xmlns="http://www.w3.org/2000/svg">
<path d="M3.88549 4.7846L3.8854 4.78464C2.8954 5.22464 2.25 6.21268 2.25 7.3V12C2.25 17.8646 6.29696 23.3794 11.8221 24.7286L12 24.772L12.1779 24.7286C17.703 23.3794 21.75 17.8646 21.75 12V7.3C21.75 6.21268 21.1046 5.22464 20.1146 4.78464L20.1145 4.7846L13.1183 1.67631C13.1176 1.676 13.1169 1.67569 13.1163 1.67537C12.4114 1.35821 11.5886 1.35821 10.8837 1.67537L3.88549 4.7846ZM7.57967 13.8203L7.58108 13.8217L9.47108 15.7017L10.0014 16.2293L10.5303 15.7003L16.4103 9.82033C16.5074 9.72322 16.6626 9.72322 16.7597 9.82033C16.8568 9.91744 16.8568 10.0726 16.7597 10.1697L10.1697 16.7597L10.1696 16.7596L10.1628 16.7666C10.081 16.8506 9.9213 16.8606 9.82033 16.7597L7.23033 14.1697C7.13322 14.0726 7.13322 13.9174 7.23033 13.8203C7.32744 13.7232 7.48256 13.7232 7.57967 13.8203Z" fill="#589F39" stroke="white" stroke-width="1.5"/>
</svg>
